<?xml version="1.0" encoding="UTF-8" standalone="no"?>
<svg
   xmlns:dc="http://purl.org/dc/elements/1.1/"
   xmlns:cc="http://creativecommons.org/ns#"
   xmlns:rdf="http://www.w3.org/1999/02/22-rdf-syntax-ns#"
   xmlns:svg="http://www.w3.org/2000/svg"
   xmlns="http://www.w3.org/2000/svg"
   xmlns:xlink="http://www.w3.org/1999/xlink"
   xmlns:sodipodi="http://sodipodi.sourceforge.net/DTD/sodipodi-0.dtd"
   xmlns:inkscape="http://www.inkscape.org/namespaces/inkscape"
   sodipodi:docname="goose.svg"
   inkscape:version="1.0 (6e3e5246a0, 2020-05-07)"
   id="svg8"
   version="1.1"
   viewBox="19.9 0 201.80119 201.8012"
   height="201.80119mm"
   width="201.80119mm">
  <defs
     id="defs2">
    <linearGradient
       inkscape:collect="always"
       id="linearGradient887">
      <stop
         style="stop-color:#4d4d4d;stop-opacity:1"
         offset="0"
         id="stop883" />
      <stop
         style="stop-color:#999999;stop-opacity:1"
         offset="1"
         id="stop885" />
    </linearGradient>
    <linearGradient
       id="linearGradient1088"
       inkscape:collect="always">
      <stop
         style="stop-color:#808080;stop-opacity:1"
         offset="0"
         id="stop1086" />
      <stop
         style="stop-color:#595555;stop-opacity:1"
         offset="1"
         id="stop1084" />
    </linearGradient>
    <radialGradient
       gradientUnits="userSpaceOnUse"
       gradientTransform="matrix(1.0304031,-0.69908187,0.34700607,0.5114653,10.459477,123.99402)"
       r="23.070639"
       fy="52.360706"
       fx="139.5446"
       cy="52.360706"
       cx="139.5446"
       id="radialGradient1102"
       xlink:href="#linearGradient1088"
       inkscape:collect="always" />
    <radialGradient
       inkscape:collect="always"
       xlink:href="#linearGradient1088"
       id="radialGradient847"
       cx="121.70103"
       cy="105.74088"
       fx="121.70103"
       fy="105.74088"
       r="22.387735"
       gradientTransform="matrix(1,0,0,1.8995305,32.871547,-104.19945)"
       gradientUnits="userSpaceOnUse" />
    <radialGradient
       inkscape:collect="always"
       xlink:href="#linearGradient1088"
       id="radialGradient881"
       cx="151.7419"
       cy="171.08379"
       fx="151.7419"
       fy="171.08379"
       r="49.404831"
       gradientTransform="matrix(-0.56169333,0.30847999,-0.14943183,-0.27209175,274.07766,180.80723)"
       gradientUnits="userSpaceOnUse" />
    <radialGradient
       inkscape:collect="always"
       xlink:href="#linearGradient887"
       id="radialGradient889"
       cx="120.87814"
       cy="148.71913"
       fx="120.87814"
       fy="148.71913"
       r="63.313534"
       gradientTransform="matrix(0.73585677,0.10830452,-0.14081777,0.95676271,85.7448,-7.5250208)"
       gradientUnits="userSpaceOnUse" />
  </defs>
  <sodipodi:namedview
     inkscape:snap-nodes="true"
     inkscape:window-maximized="1"
     inkscape:window-y="27"
     inkscape:window-x="219"
     inkscape:window-height="656"
     inkscape:window-width="1221"
     showgrid="false"
     inkscape:document-rotation="0"
     inkscape:current-layer="layer1"
     inkscape:document-units="mm"
     inkscape:cy="392.94471"
     inkscape:cx="366.2122"
     inkscape:zoom="0.5"
     inkscape:pageshadow="2"
     inkscape:pageopacity="0.0"
     borderopacity="1.0"
     bordercolor="#666666"
     pagecolor="#ffffff"
     id="base"
     lock-margins="false"
     fit-margin-top="1.1"
     fit-margin-left="1.1"
     fit-margin-right="1.1"
     fit-margin-bottom="1.1"
     viewbox-x="19.9" />
  <metadata
     id="metadata5">
    <rdf:RDF>
      <cc:Work
         rdf:about="">
        <dc:format>image/svg+xml</dc:format>
        <dc:type
           rdf:resource="http://purl.org/dc/dcmitype/StillImage" />
        <dc:title></dc:title>
      </cc:Work>
    </rdf:RDF>
  </metadata>
  <g
     inkscape:groupmode="layer"
     id="layer2"
     inkscape:label="Background"
     transform="translate(19.648473)" />
  <g
     id="layer1"
     inkscape:groupmode="layer"
     inkscape:label="Layer 1"
     transform="translate(-34.374427,-44.230341)">
    <path
       sodipodi:nodetypes="ccsccc"
       id="path1003"
       d="m 210.3038,136.51778 c -47.30161,-51.690224 -50.4641,-3.85512 -61.32177,14.06914 -8.90807,15.21883 -26.77662,16.25999 -38.89836,46.71953 -12.121731,30.45953 -21.837696,47.62508 -21.837696,47.62508 L 199.55317,226.64481 c 2.87212,-25.84395 23.65181,-60.93526 10.75063,-90.12703 z"
       style="fill:url(#radialGradient889);fill-opacity:1;fill-rule:evenodd;stroke:none;stroke-width:0.264863px;stroke-linecap:butt;stroke-linejoin:miter;stroke-opacity:1" />
    <path
       sodipodi:nodetypes="ssccczs"
       d="m 184.90306,116.15653 c -3.29111,-11.07293 -4.917,-11.85612 -6.47985,-21.854586 -1.57238,-10.05947 0.90766,-10.259745 1.44459,-19.991525 l -22.16063,-0.999008 c -9.39385,13.64711 -13.15902,9.591446 -14.94796,26.565566 -2.38904,18.272933 5.67318,34.506293 10.8083,40.440383 5.13512,5.9341 33.27904,-17.62197 31.33555,-24.16083 z"
       id="path841"
       style="mix-blend-mode:normal;fill:url(#radialGradient847);fill-opacity:1;stroke:none;stroke-width:0.266;stroke-miterlimit:4;stroke-dasharray:none;stroke-dashoffset:0;stroke-opacity:1" />
    <path
       sodipodi:nodetypes="sccsss"
       id="path1023"
       d="m 163.81627,88.567305 c 31.85825,-10.750267 27.17092,-29.359457 27.17092,-29.359457 l -2.155,-9.273155 c -11.02177,-12.304087 -33.61778,3.050837 -39.52851,11.174397 -6.69452,9.200793 -3.60399,26.04957 -3.60399,26.04957 5.27053,3.560024 5.48219,5.672002 18.11658,1.408645 z"
       style="mix-blend-mode:normal;fill:url(#radialGradient1102);fill-opacity:1;fill-rule:evenodd;stroke:none;stroke-width:0.360901px;stroke-linecap:butt;stroke-linejoin:miter;stroke-opacity:1" />
    <path
       sodipodi:nodetypes="cccccsc"
       id="path1025"
       d="m 188.83219,49.934693 c -2.96665,5.267154 -5.56307,3.105868 -5.56307,3.105868 l 2.49317,21.253792 c 11.6736,-5.266296 26.93527,2.672538 35.02281,1.664597 4.10836,-0.600423 -2.69292,-5.939409 -2.69292,-5.939409 -7.05191,-4.513034 -21.55927,-9.131615 -23.48898,-13.070446 -2.00959,-4.10187 -2.63929,-3.286479 -5.77101,-7.014402 z"
       style="fill:#ff6500;fill-opacity:1;fill-rule:evenodd;stroke:none;stroke-width:0.387376px;stroke-linecap:butt;stroke-linejoin:miter;stroke-opacity:1" />
    <g
       transform="translate(29.16738,4.7625002)"
       id="g1039">
      <path
         style="fill:#000000;fill-opacity:1;stroke:#919191;stroke-width:0.419;stroke-miterlimit:4;stroke-dasharray:none;stroke-dashoffset:0;stroke-opacity:1"
         id="path1029"
         sodipodi:type="arc"
         sodipodi:cx="140.70078"
         sodipodi:cy="52.699501"
         sodipodi:rx="4.3330002"
         sodipodi:ry="3.5739801"
         sodipodi:start="3.9235002"
         sodipodi:end="6.0964351"
         sodipodi:arc-type="arc"
         d="m 137.62621,50.181152 a 4.3330002,3.5739801 0 0 1 4.34503,-0.898552 4.3330002,3.5739801 0 0 1 2.9872,2.753332"
         sodipodi:open="true" />
      <path
         style="fill:#000000;fill-opacity:1;fill-rule:evenodd;stroke:#919191;stroke-width:0.419;stroke-linecap:butt;stroke-linejoin:miter;stroke-miterlimit:4;stroke-dasharray:none;stroke-opacity:1"
         d="m 137.6262,50.181152 c 0.0797,6.185687 7.33224,1.85478 7.33224,1.85478"
         id="path1035"
         sodipodi:nodetypes="cc" />
    </g>
    <path
       style="fill:url(#radialGradient881);fill-opacity:1;fill-rule:evenodd;stroke:#666666;stroke-width:0.264583px;stroke-linecap:butt;stroke-linejoin:miter;stroke-opacity:1"
       d="m 153.7515,147.85555 c 0,0 17.35659,9.26019 26.68148,4.20636 8.05268,-4.36432 10.71972,33.66581 6.37828,41.73085 -12.52017,23.25857 -91.603564,40.05014 -91.603564,40.05014 0,0 19.503414,-42.88966 28.970194,-57.27739 4.73364,-7.19425 29.57361,-28.70996 29.57361,-28.70996 z"
       id="path849"
       sodipodi:nodetypes="csscsc" />
  </g>
</svg>
