<?xml version="1.0" encoding="UTF-8" standalone="no"?>
<svg
   xmlns:dc="http://purl.org/dc/elements/1.1/"
   xmlns:cc="http://creativecommons.org/ns#"
   xmlns:rdf="http://www.w3.org/1999/02/22-rdf-syntax-ns#"
   xmlns:svg="http://www.w3.org/2000/svg"
   xmlns="http://www.w3.org/2000/svg"
   xmlns:sodipodi="http://sodipodi.sourceforge.net/DTD/sodipodi-0.dtd"
   xmlns:inkscape="http://www.inkscape.org/namespaces/inkscape"
   width="85.977005mm"
   height="105.53668mm"
   viewBox="66.6 -7.5 85.977003 105.53669"
   version="1.1"
   id="svg8"
   inkscape:version="1.0 (6e3e5246a0, 2020-05-07)"
   sodipodi:docname="goose_small_dark.svg">
  <defs
     id="defs2" />
  <sodipodi:namedview
     viewbox-x="66.6"
     fit-margin-bottom="3.1"
     fit-margin-right="3.1"
     fit-margin-left="3.1"
     fit-margin-top="6.5"
     lock-margins="false"
     id="base"
     pagecolor="#ffffff"
     bordercolor="#666666"
     borderopacity="1.0"
     inkscape:pageopacity="0.0"
     inkscape:pageshadow="2"
     inkscape:zoom="1"
     inkscape:cx="276.92144"
     inkscape:cy="275.96833"
     inkscape:document-units="mm"
     inkscape:current-layer="layer1"
     inkscape:document-rotation="0"
     showgrid="false"
     inkscape:window-width="1381"
     inkscape:window-height="755"
     inkscape:window-x="59"
     inkscape:window-y="27"
     inkscape:window-maximized="1"
     inkscape:snap-nodes="true"
     viewbox-width="136.0581"
     scale-x="1"
     viewbox-y="-7.5" />
  <metadata
     id="metadata5">
    <rdf:RDF>
      <cc:Work
         rdf:about="">
        <dc:format>image/svg+xml</dc:format>
        <dc:type
           rdf:resource="http://purl.org/dc/dcmitype/StillImage" />
        <dc:title></dc:title>
      </cc:Work>
    </rdf:RDF>
  </metadata>
  <g
     transform="translate(14.267375,-2.1000005)"
     inkscape:label="Background"
     id="layer2"
     inkscape:groupmode="layer" />
  <g
     transform="translate(-39.755525,-46.330341)"
     inkscape:label="Layer 1"
     inkscape:groupmode="layer"
     id="layer1">
    <path
       style="fill:#b3b3b3;fill-opacity:1;fill-rule:evenodd;stroke:none;stroke-width:0.264863px;stroke-linecap:butt;stroke-linejoin:miter;stroke-opacity:1"
       d="m 177.43225,136.51778 c -47.30161,-51.690224 -50.4641,-3.85512 -61.32177,14.06914 -8.90807,15.21883 -26.776619,16.25999 -38.898354,46.71953 -12.121734,30.45953 -21.837699,47.62508 -21.837699,47.62508 L 166.68162,226.64481 c 2.87212,-25.84395 23.65181,-60.93526 10.75063,-90.12703 z"
       id="path1003"
       sodipodi:nodetypes="ccsccc" />
    <path
       style="mix-blend-mode:normal;fill:#999999;fill-opacity:1;stroke:none;stroke-width:0.266;stroke-miterlimit:4;stroke-dasharray:none;stroke-dashoffset:0;stroke-opacity:1"
       id="path841"
       d="m 152.03151,116.15653 c -3.29111,-11.07293 -4.917,-11.85612 -6.47985,-21.854586 -1.57238,-10.05947 0.90766,-10.259745 1.44459,-19.991525 l -22.16063,-0.999008 c -9.39385,13.64711 -13.15902,9.591446 -14.94796,26.565566 -2.38904,18.272933 5.67318,34.506293 10.8083,40.440383 5.13512,5.9341 33.27904,-17.62197 31.33555,-24.16083 z"
       sodipodi:nodetypes="ssccczs" />
    <path
       style="mix-blend-mode:normal;fill:#b3b3b3;fill-opacity:1;fill-rule:evenodd;stroke:none;stroke-width:0.360901px;stroke-linecap:butt;stroke-linejoin:miter;stroke-opacity:1"
       d="m 130.94472,88.567305 c 31.85825,-10.750267 27.17092,-29.359457 27.17092,-29.359457 l -2.155,-9.273155 c -11.02177,-12.304087 -33.61778,3.050837 -39.52851,11.174397 -6.69452,9.200793 -3.60399,26.04957 -3.60399,26.04957 5.27053,3.560024 5.48219,5.672002 18.11658,1.408645 z"
       id="path1023"
       sodipodi:nodetypes="sccsss" />
    <path
       style="fill:#ff6500;fill-opacity:1;fill-rule:evenodd;stroke:none;stroke-width:0.387376px;stroke-linecap:butt;stroke-linejoin:miter;stroke-opacity:1"
       d="m 155.96064,49.934693 c -2.96665,5.267154 -5.56307,3.105868 -5.56307,3.105868 l 2.49317,21.253792 c 11.6736,-5.266296 26.93527,2.672538 35.02281,1.664597 4.10836,-0.600423 -2.69292,-5.939409 -2.69292,-5.939409 -7.05191,-4.513034 -21.55927,-9.131615 -23.48898,-13.070446 -2.00959,-4.10187 -2.63929,-3.286479 -5.77101,-7.014402 z"
       id="path1025"
       sodipodi:nodetypes="cccccsc" />
    <g
       style="fill:#000000;stroke:none;stroke-width:1;stroke-miterlimit:4;stroke-dasharray:none;stroke-opacity:1;fill-opacity:1"
       id="g1039"
       transform="translate(-3.7041668,4.7625002)">
      <path
         sodipodi:open="true"
         d="m 137.62621,50.181152 a 4.3330002,3.5739801 0 0 1 4.34503,-0.898552 4.3330002,3.5739801 0 0 1 2.9872,2.753332"
         sodipodi:arc-type="arc"
         sodipodi:end="6.0964351"
         sodipodi:start="3.9235002"
         sodipodi:ry="3.5739801"
         sodipodi:rx="4.3330002"
         sodipodi:cy="52.699501"
         sodipodi:cx="140.70078"
         sodipodi:type="arc"
         id="path1029"
         style="fill:#000000;fill-opacity:1;stroke:none;stroke-width:1;stroke-miterlimit:4;stroke-dasharray:none;stroke-dashoffset:0;stroke-opacity:1" />
      <path
         sodipodi:nodetypes="cc"
         id="path1035"
         d="m 137.6262,50.181152 c 0.0797,6.185687 7.33224,1.85478 7.33224,1.85478"
         style="fill:#000000;fill-opacity:1;fill-rule:evenodd;stroke:none;stroke-width:1;stroke-linecap:butt;stroke-linejoin:miter;stroke-miterlimit:4;stroke-dasharray:none;stroke-opacity:1" />
    </g>
    <path
       sodipodi:nodetypes="csscsc"
       id="path849"
       d="m 120.87995,147.85555 c 0,0 17.35659,9.26019 26.68148,4.20636 8.05268,-4.36432 10.71972,33.66581 6.37828,41.73085 -12.52017,23.25857 -91.603561,40.05014 -91.603561,40.05014 0,0 19.503417,-42.88966 28.970192,-57.27739 4.733646,-7.19425 29.573609,-28.70996 29.573609,-28.70996 z"
       style="fill:#565656;fill-opacity:1;fill-rule:evenodd;stroke:#666666;stroke-width:0.264583px;stroke-linecap:butt;stroke-linejoin:miter;stroke-opacity:1" />
  </g>
</svg>
